<svg width="128" height="128" viewBox="0 0 128 128" xmlns="http://www.w3.org/2000/svg">
  <!-- Background circle -->
  <circle cx="64" cy="64" r="60" fill="#68217a"/>
  
  <!-- Debug symbol (bug) -->
  <g transform="translate(32, 35)">
    <!-- Bug body -->
    <ellipse cx="32" cy="35" rx="18" ry="22" fill="#ffffff"/>
    <ellipse cx="32" cy="30" rx="14" ry="16" fill="#68217a"/>
    
    <!-- Bug head -->
    <circle cx="32" cy="15" r="10" fill="#ffffff"/>
    
    <!-- Antennae -->
    <line x1="26" y1="10" x2="20" y2="4" stroke="#ffffff" stroke-width="2" stroke-linecap="round"/>
    <line x1="38" y1="10" x2="44" y2="4" stroke="#ffffff" stroke-width="2" stroke-linecap="round"/>
    
    <!-- Bug legs -->
    <line x1="18" y1="28" x2="8" y2="28" stroke="#ffffff" stroke-width="2" stroke-linecap="round"/>
    <line x1="18" y1="38" x2="8" y2="42" stroke="#ffffff" stroke-width="2" stroke-linecap="round"/>
    <line x1="18" y1="48" x2="10" y2="54" stroke="#ffffff" stroke-width="2" stroke-linecap="round"/>
    
    <line x1="46" y1="28" x2="56" y2="28" stroke="#ffffff" stroke-width="2" stroke-linecap="round"/>
    <line x1="46" y1="38" x2="56" y2="42" stroke="#ffffff" stroke-width="2" stroke-linecap="round"/>
    <line x1="46" y1="48" x2="54" y2="54" stroke="#ffffff" stroke-width="2" stroke-linecap="round"/>
    
    <!-- Eyes -->
    <circle cx="28" cy="15" r="2" fill="#68217a"/>
    <circle cx="36" cy="15" r="2" fill="#68217a"/>
  </g>
  
  <!-- C# Symbol - larger and more visible -->
  <g transform="translate(68, 68)">
    <!-- # symbol with borders -->
    <rect x="6" y="0" width="4" height="28" fill="#ffffff" stroke="#000000" stroke-width="1" rx="1"/>
    <rect x="18" y="0" width="4" height="28" fill="#ffffff" stroke="#000000" stroke-width="1" rx="1"/>
    <rect x="0" y="8" width="28" height="4" fill="#ffffff" stroke="#000000" stroke-width="1" rx="1"/>
    <rect x="0" y="16" width="28" height="4" fill="#ffffff" stroke="#000000" stroke-width="1" rx="1"/>
  </g>
</svg>
